<?xml version="1.0" encoding="UTF-8" standalone="no"?>
<!-- Created with Inkscape (http://www.inkscape.org/) -->

<svg
   width="256"
   height="256"
   viewBox="0 0 67.733333 67.733333"
   version="1.1"
   id="svg1"
   inkscape:version="1.4.2 (f4327f4, 2025-05-13)"
   sodipodi:docname="IconConfigs.svg"
   xml:space="preserve"
   inkscape:export-filename="..\Assets\Icons\Sidebar\IconConfigs.png"
   inkscape:export-xdpi="36"
   inkscape:export-ydpi="36"
   xmlns:inkscape="http://www.inkscape.org/namespaces/inkscape"
   xmlns:sodipodi="http://sodipodi.sourceforge.net/DTD/sodipodi-0.dtd"
   xmlns="http://www.w3.org/2000/svg"
   xmlns:svg="http://www.w3.org/2000/svg"><sodipodi:namedview
     id="namedview1"
     pagecolor="#ffffff"
     bordercolor="#000000"
     borderopacity="0.25"
     inkscape:showpageshadow="2"
     inkscape:pageopacity="0.0"
     inkscape:pagecheckerboard="0"
     inkscape:deskcolor="#d1d1d1"
     inkscape:document-units="mm"
     inkscape:zoom="2"
     inkscape:cx="89.75"
     inkscape:cy="142"
     inkscape:window-width="1920"
     inkscape:window-height="991"
     inkscape:window-x="-9"
     inkscape:window-y="-9"
     inkscape:window-maximized="1"
     inkscape:current-layer="layer1"
     showguides="false" /><defs
     id="defs1"><inkscape:path-effect
       effect="fillet_chamfer"
       id="path-effect58"
       is_visible="true"
       lpeversion="1"
       nodesatellites_param="F,0,0,1,0,2,0,1 @ F,0,0,1,0,2,0,1 @ F,0,0,1,0,0,0,1 @ F,0,0,1,0,2,0,1 @ F,0,0,1,0,2,0,1 @ F,0,0,1,0,2,0,1 @ F,0,0,1,0,2,0,1 @ F,0,0,1,0,0,0,1 @ F,0,0,1,0,2,0,1 @ F,0,0,1,0,2,0,1 @ F,0,0,1,0,2,0,1 @ F,0,0,1,0,2,0,1 @ F,0,0,1,0,0,0,1 @ F,0,0,1,0,2,0,1 @ F,0,0,1,0,2,0,1 @ F,0,0,1,0,2,0,1 @ F,0,0,1,0,2,0,1 @ F,0,0,1,0,0,0,1 @ F,0,0,1,0,2,0,1 @ F,0,0,1,0,2,0,1 @ F,0,0,1,0,2,0,1 @ F,0,0,1,0,2,0,1 @ F,0,0,1,0,0,0,1 @ F,0,0,1,0,2,0,1 @ F,0,0,1,0,2,0,1 @ F,0,0,1,0,2,0,1 @ F,0,0,1,0,2,0,1 @ F,0,0,1,0,0,0,1 @ F,0,0,1,0,2,0,1 @ F,0,0,1,0,2,0,1 @ F,0,0,1,0,2,0,1 @ F,0,0,1,0,2,0,1 @ F,0,0,1,0,0,0,1 @ F,0,0,1,0,2,0,1 @ F,0,0,1,0,2,0,1 @ F,0,0,1,0,2,0,1 @ F,0,0,1,0,2,0,1 @ F,0,0,1,0,0,0,1 @ F,0,0,1,0,2,0,1 @ F,0,0,1,0,2,0,1 | F,0,0,1,0,0,0,1 @ F,0,0,1,0,0,0,1 @ F,0,0,1,0,0,0,1 @ F,0,0,1,0,0,0,1"
       radius="0"
       unit="px"
       method="auto"
       mode="F"
       chamfer_steps="1"
       flexible="false"
       use_knot_distance="true"
       apply_no_radius="true"
       apply_with_radius="true"
       only_selected="false"
       hide_knots="false" /><inkscape:path-effect
       effect="fillet_chamfer"
       id="path-effect57"
       nodesatellites_param="F,0,0,1,0,0,0,1 @ F,0,0,1,0,0,0,1 @ F,0,0,1,0,0,0,1 @ F,0,0,1,0,0,0,1 @ F,0,0,1,0,0,0,1 @ F,0,0,1,0,0,0,1 @ F,0,0,1,0,0,0,1 @ F,0,0,1,0,0,0,1 @ F,0,0,1,0,0,0,1 @ F,0,0,1,0,0,0,1 @ F,0,0,1,0,0,0,1 @ F,0,0,1,0,0,0,1 @ F,0,0,1,0,0,0,1 @ F,0,0,1,0,0,0,1 @ F,0,0,1,0,0,0,1 @ F,0,0,1,0,0,0,1 @ F,0,0,1,0,0,0,1 @ F,0,0,1,0,0,0,1 @ F,0,0,1,0,0,0,1 @ F,0,0,1,0,0,0,1 @ F,0,0,1,0,0,0,1 @ F,0,0,1,0,0,0,1 @ F,0,0,1,0,0,0,1 @ F,0,0,1,0,0,0,1 @ F,0,0,1,0,0,0,1 @ F,0,0,1,0,0,0,1 @ F,0,0,1,0,0,0,1 @ F,0,0,1,0,0,0,1 @ F,0,0,1,0,0,0,1 @ F,0,0,1,0,0,0,1 @ F,0,0,1,0,0,0,1 @ F,0,0,1,0,0,0,1 @ F,0,0,1,0,0,0,1 @ F,0,0,1,0,0,0,1 @ F,0,0,1,0,0,0,1 @ F,0,0,1,0,0,0,1 @ F,0,0,1,0,0,0,1 @ F,0,0,1,0,0,0,1 @ F,0,0,1,0,0,0,1 @ F,0,0,1,0,0,0,1 | F,0,0,1,0,0,0,1 @ F,0,0,1,0,0,0,1 @ F,0,0,1,0,0,0,1 @ F,0,0,1,0,0,0,1 @ F,0,0,1,0,0,0,1 @ F,0,0,1,0,0,0,1 @ F,0,0,1,0,0,0,1 @ F,0,0,1,0,0,0,1 @ F,0,0,1,0,0,0,1 @ F,0,0,1,0,0,0,1 @ F,0,0,1,0,0,0,1 @ F,0,0,1,0,0,0,1 @ F,0,0,1,0,0,0,1 @ F,0,0,1,0,0,0,1 @ F,0,0,1,0,0,0,1 @ F,0,0,1,0,0,0,1"
       is_visible="true"
       lpeversion="1"
       radius="0"
       unit="px"
       method="auto"
       mode="F"
       chamfer_steps="1"
       flexible="false"
       use_knot_distance="true"
       apply_no_radius="true"
       apply_with_radius="true"
       only_selected="false"
       hide_knots="false" /></defs><g
     inkscape:groupmode="layer"
     id="layer1"
     inkscape:label="all"><path
       id="path8-6"
       style="baseline-shift:baseline;display:inline;overflow:visible;vector-effect:none;fill:#ffffff;stroke-width:1.17073;stroke-linecap:round;stroke-linejoin:round;enable-background:accumulate;stop-color:#000000"
       d="M 53.766029,10.292823 C 52.383073,8.9604328 50.027524,9.2475292 48.865782,10.72728 47.882561,11.981576 46.197974,12.776187 44.640223,12.130103 42.981871,11.360827 40.780506,11.029782 39.929119,9.2091994 39.235895,7.6097754 40.165286,5.5322351 38.74988,4.2011097 37.410643,2.6464799 35.190182,3.2319529 33.3949,3.1183435 c -1.596545,-0.02901 -3.517135,-0.1888613 -4.58807,1.2652456 -1.369578,1.6420585 0.02413,4.1132914 -1.543914,5.6633009 -1.203617,1.139016 -2.904486,1.546157 -4.40998,2.148774 -1.590666,0.583428 -3.153047,-0.42514 -4.133853,-1.626271 -1.257498,-1.4925735 -3.73544,-1.5112753 -5.005025,-0.02459 -1.304131,1.440627 -2.93059,2.626031 -3.9839194,4.269045 -0.7557509,1.543045 -0.00264,3.329372 1.2802164,4.3275 1.318312,1.040869 1.731853,2.936307 0.943399,4.423808 -0.713574,1.663822 -1.197613,3.89544 -3.2114672,4.406277 -1.5348693,0.33015 -3.4446414,-0.25641 -4.621288,1.101549 -1.4816094,1.392559 -0.8569815,3.594208 -0.9915156,5.392781 -0.043308,1.559008 -0.1466837,3.420145 1.2652374,4.459029 1.6420236,1.365582 4.1109513,-0.0174 5.6615274,1.545702 1.137309,1.201105 1.543447,2.898968 2.146817,4.401111 0.586555,1.592063 -0.418316,3.159119 -1.62254,4.140935 -1.4935534,1.258116 -1.5111228,3.735048 -0.02637,5.006811 1.441141,1.304896 2.627247,2.931344 4.270827,3.985701 1.493652,0.718705 3.251805,0.0594 4.234474,-1.190754 1.023947,-1.320058 2.890604,-1.853622 4.407166,-1.079379 1.650266,0.731999 3.890207,1.1587 4.468377,3.13312 0.434488,1.522763 -0.250661,3.424142 1.054311,4.651342 1.339187,1.557453 3.560428,0.971038 5.356762,1.083486 1.583882,0.02171 3.493654,0.19933 4.563476,-1.239594 1.407416,-1.632999 -0.009,-4.134045 1.568524,-5.687876 1.209555,-1.134728 2.909589,-1.549049 4.418568,-2.151722 1.586694,-0.578344 3.146646,0.432435 4.125256,1.629212 1.228343,1.45308 3.623301,1.521643 4.915565,0.117611 1.334493,-1.470441 2.988597,-2.684806 4.073376,-4.358503 0.751343,-1.54267 0.0066,-3.331744 -1.278435,-4.329281 -1.325948,-1.045131 -1.730303,-2.950303 -0.940245,-4.442874 0.715829,-1.657173 1.203606,-3.888533 3.214504,-4.393784 1.535076,-0.315777 3.440088,0.257259 4.615089,-1.094986 1.481153,-1.393005 0.85728,-3.594049 0.991525,-5.392772 0.04331,-1.559009 0.146684,-3.420145 -1.265237,-4.459028 -1.615438,-1.342334 -3.989652,-0.02567 -5.572427,-1.452359 -1.207485,-1.205929 -1.619812,-2.958604 -2.239931,-4.501463 -0.583153,-1.590554 0.425441,-3.153178 1.626554,-4.133928 1.496352,-1.256609 1.511545,-3.735945 0.02637,-5.00681 -1.142646,-1.135349 -2.271343,-2.285759 -3.42261,-3.411848 z M 43.882855,23.85055 c 4.090753,3.975141 5.331275,10.513889 2.958447,15.703486 -2.294798,5.383279 -8.177575,8.963152 -14.018987,8.433753 -6.114891,-0.352455 -11.606085,-5.159053 -12.803577,-11.159012 -1.263569,-5.507552 1.208228,-11.590634 5.920661,-14.696401 4.855165,-3.407421 11.860904,-3.2102 16.513373,0.470138 0.508038,0.378708 0.975122,0.80795 1.430081,1.248038 z"
       inkscape:label="shape" /></g></svg>
